PathFileType	4	(X/Y/Z)	1_Data\scaling.trc
DataRate	CameraRate	NumFrames	NumMarkers	Units	OrigDataRate	OrigDataStartFrame	OrigNumFrames
120.000000	120.000000	4	71	mm	120.000000	522	697
Frame#	Time	Sternum			Neck			RShoulder			LShoulder			Xiphoid			Thoracic			RAsis			LAsis			RPsis			LPsis			RElbow			RElbowMedial			RShoulderAnterior			RShoulderPosterior			RWrist			RRadius			RUlna			LElbow			LElbowMedial			LShoulderAnterior			LShoulderPosterior			LWrist			LUlna			LRadius			LThighSuperior			LThighInferior			LThighLateral			LKneeLateral			LKneeMedial			LPatella			LShankSuperior			LShankInferior			LShankLateral			LAnkleLateral			LAnkleMedial			RThighSuperior			RThighInferior			RThighLateral			RKneeLateral			RPatella			RShankSuperior			RShankInferior			RShankLateral			RAnkleLateral			RankleMedial			RHeel			RToe			RMidfootMedial			RMidfootLateral			RHindfoot			RMidfootSuperior			RToeMedial			RToeLateral			LHeel			LToe			LMidfootMedial			LMidfootLateral			LHindfoot			LMidfootSuperior			LToeMedial			LToeLateral			RKneeMedial			Lumbar			Oglobal			Sacral			Xglobal			Yglobal			Zglobal			*68			*69			*70			
		X1	Y1	Z1	X2	Y2	Z2	X3	Y3	Z3	X4	Y4	Z4	X5	Y5	Z5	X6	Y6	Z6	X7	Y7	Z7	X8	Y8	Z8	X9	Y9	Z9	X10	Y10	Z10	X11	Y11	Z11	X12	Y12	Z12	X13	Y13	Z13	X14	Y14	Z14	X15	Y15	Z15	X16	Y16	Z16	X17	Y17	Z17	X18	Y18	Z18	X19	Y19	Z19	X20	Y20	Z20	X21	Y21	Z21	X22	Y22	Z22	X23	Y23	Z23	X24	Y24	Z24	X25	Y25	Z25	X26	Y26	Z26	X27	Y27	Z27	X28	Y28	Z28	X29	Y29	Z29	X30	Y30	Z30	X31	Y31	Z31	X32	Y32	Z32	X33	Y33	Z33	X34	Y34	Z34	X35	Y35	Z35	X36	Y36	Z36	X37	Y37	Z37	X38	Y38	Z38	X39	Y39	Z39	X40	Y40	Z40	X41	Y41	Z41	X42	Y42	Z42	X43	Y43	Z43	X44	Y44	Z44	X45	Y45	Z45	X46	Y46	Z46	X47	Y47	Z47	X48	Y48	Z48	X49	Y49	Z49	X50	Y50	Z50	X51	Y51	Z51	X52	Y52	Z52	X53	Y53	Z53	X54	Y54	Z54	X55	Y55	Z55	X56	Y56	Z56	X57	Y57	Z57	X58	Y58	Z58	X59	Y59	Z59	X60	Y60	Z60	X61	Y61	Z61	X62	Y62	Z62	X63	Y63	Z63	X64	Y64	Z64	X65	Y65	Z65	X66	Y66	Z66	X67	Y67	Z67	X68	Y68	Z68	X69	Y69	Z69	X70	Y70	Z70	X71	Y71	Z71	

523	4.35	533.0313720703125	1455.925048828125	-467.5624694824218	379.6393737792969	1572.397705078125	-457.2447204589843	429.4260559082031	1555.3232421875	-302.4746704101561	405.7331237792969	1553.560302734375	-602.8228759765624	559.9342041015625	1302.369384765625	-457.4816894531249	290.5690307617188	1352.098022460938	-452.3394775390624	488.1421203613281	1039.527954101562	-323.9119262695312	501.3625183105469	1044.694702148438	-604.8076171874999	302.4021606445312	1067.3857421875	-414.1036987304687	301.2450256347656	1066.869995117188	-516.4721069335936	522.4201049804688	1300.892578125	-100.7638244628905	553.6063842773438	1242.9775390625	-173.5092620849609	484.1023559570312	1498.677978515625	-311.5942993164061	370.6017150878906	1502.84765625	-283.6376342773436	788.0425415039062	1339.331298828125	-96.13182830810538	801.6817626953125	1312.734130859375	-140.2375335693359	789.8257446289062	1313.303833007812	-58.50572204589836	529.7901000976562	1294.279907226562	-793.0858154296874	540.13720703125	1236.795288085938	-720.3539428710936	467.7983703613281	1505.334594726562	-620.0842895507811	356.769775390625	1494.72412109375	-632.9865112304686	797.4598388671875	1320.470825195312	-775.6748046874999	791.378173828125	1284.36376953125	-806.6072998046874	804.3109741210938	1299.95654296875	-732.5847778320311	443.5782470703125	873.8660278320312	-659.4484252929688	469.5551147460938	643.072509765625	-640.9147338867188	543.4826049804688	747.6917114257812	-587.7283935546875	474.4220581054688	558.1063842773438	-643.6741943359375	467.4193725585938	565.00830078125	-501.5091857910156	552.5577392578125	554.655029296875	-578.1510009765625	465.6505126953125	405.8080444335938	-661.4185791015625	429.6271362304688	204.9645233154297	-643.2022705078125	488.3164978027344	294.4329528808594	-602.4671630859375	410.8373413085938	124.3894119262696	-643.62255859375	439.6936340332031	125.2956237792969	-558.1327514648438	424.5755310058594	846.6568603515625	-287.5594787597656	440.013671875	610.4745483398438	-311.1864624023437	528.8021850585938	764.5947875976562	-340.2221679687499	432.7276916503906	545.5829467773438	-310.0323791503906	526.4083862304688	540.353515625	-350.7096862792968	420.0018310546875	448.9214477539062	-304.3521728515625	413.7947082519531	194.5313873291016	-335.9434509277344	479.8745422363281	318.8319091796875	-367.9356384277344	405.0532531738281	120.0511703491211	-339.4742736816406	436.9772644042969	137.4854888916016	-425.8197326660156	332.075927734375	79.65424346923831	-394.6964416503906	646.42333984375	62.7542419433594	-351.5437316894531	552.4968872070312	49.35055923461917	-414.5226440429688	541.244140625	43.55772781372072	-295.5037841796875	486.6215209960938	43.62663650512697	-309.8318786621094	514.5885009765625	110.8440399169922	-364.4254150390625	598.0391845703125	50.17962646484377	-403.9516906738281	588.95556640625	48.3676452636719	-301.0152893066406	341.557373046875	83.19628143310551	-590.9984130859375	648.8720092773438	74.04087066650395	-642.764404296875	555.6296997070312	50.74937438964847	-578.4719848632812	541.941650390625	47.19577026367192	-694.8768310546875	487.8973388671875	46.50521469116215	-680.0676879882812	523.5887451171875	112.6957015991211	-625.57421875	597.4124145507812	51.56633758544925	-586.797607421875	586.0740356445312	56.6775169372559	-690.0499877929688	476.7337951660156	543.28369140625	-446.2869567871093	314.0237426757812	1169.24560546875	-460.8238830566406	0	0	0	301.8236083984375	1067.1279296875	-465.2879028320312	200	0	0	0	1.224646799147353e-14	-200	0	200	1.224646799147353e-14	nan	nan	nan	nan	nan	nan	nan	nan	nan	
524	4.358333333333333	532.9920043945312	1455.945922851562	-467.5705566406249	379.6232604980469	1572.384033203125	-457.3364868164061	429.3748779296875	1555.347045898438	-302.4733276367186	405.7064514160156	1553.562377929688	-602.8408813476561	559.969970703125	1302.31494140625	-457.4333190917968	290.2781066894531	1351.986206054688	-451.9299621582031	488.096923828125	1039.530395507812	-323.8963317871093	501.3251953125	1044.714111328125	-604.8211059570311	302.3696594238281	1067.3896484375	-414.0993041992187	301.2646179199219	1066.88134765625	-516.4685058593749	522.3736572265625	1300.9755859375	-100.5794677734374	553.5370483398438	1243.0869140625	-173.4344024658202	484.0774841308594	1498.683959960938	-311.5935058593749	370.5630187988281	1502.862060546875	-283.6159362792968	787.9720458984375	1339.48193359375	-96.06925201416007	801.5953979492188	1312.66357421875	-139.9808502197265	789.7552490234375	1313.373657226562	-58.41696929931633	529.7529907226562	1294.256469726562	-793.0454711914061	540.1104125976562	1236.820678710938	-720.2822875976561	467.8075561523438	1505.338745117188	-620.1032714843749	356.565185546875	1494.878540039062	-632.8527832031249	797.4486694335938	1320.464965820312	-775.6548461914061	791.4415893554688	1284.262329101562	-806.8269653320311	804.2936401367188	1299.9677734375	-732.5343017578124	443.5421142578125	873.8640747070312	-659.467529296875	469.5274047851562	643.0662231445312	-640.9151000976562	543.4808959960938	747.6770629882812	-587.7064208984375	474.403564453125	558.0833740234375	-643.641845703125	467.4178466796875	565.0106201171875	-501.5036315917968	552.5572509765625	554.6565551757812	-578.149169921875	465.5743713378906	405.8218078613282	-661.4015502929688	429.5908508300781	204.9649505615235	-643.179931640625	488.2460021972656	294.2984924316407	-602.6005249023438	410.7032165527344	124.429672241211	-643.5368041992188	439.643310546875	125.2225189208985	-557.9719848632812	424.5521240234375	846.6478271484375	-287.5628967285156	440.0152282714844	610.4913330078125	-311.1842651367187	528.7852172851562	764.6053466796875	-340.2037963867187	432.747314453125	545.5607299804688	-310.0512695312499	526.3898315429688	540.3629150390625	-350.7073669433593	419.9841918945312	448.9291381835938	-304.3445434570312	413.775146484375	194.5711212158203	-335.8565673828125	479.8714294433594	318.841552734375	-367.9404602050781	405.0578918457031	120.0328063964844	-339.4778442382812	437.1497192382812	137.3679962158203	-425.8123168945312	332.0270080566406	79.56741333007815	-394.8615112304688	646.415771484375	62.73119735717776	-351.6219482421875	552.6080932617188	49.11385726928714	-413.737548828125	541.2674560546875	43.53336715698244	-295.5164489746094	486.6133117675781	43.65914535522463	-309.7985229492188	514.5858764648438	110.8736724853516	-364.4269714355469	598.048095703125	50.17057037353518	-403.9758911132812	589.0725708007812	48.0882034301758	-301.43115234375	341.5548095703125	83.20642852783207	-590.966064453125	648.8989868164062	74.00316619873051	-642.7924194335938	555.6296997070312	50.75153350830082	-578.4686279296875	541.9430541992188	47.19887161254887	-694.8799438476562	487.9172668457031	46.52580261230473	-680.0672607421875	523.5885620117188	112.6850662231446	-625.5543212890625	597.378662109375	51.5501861572266	-586.7713012695312	586.235595703125	56.92530441284184	-690.12158203125	476.7144470214844	543.29296875	-446.2840881347656	313.9832458496094	1169.257568359375	-460.8195190429687	0	0	0	301.817138671875	1067.135498046875	-465.2839050292968	200	0	0	0	1.224646799147353e-14	-200	0	200	1.224646799147353e-14	nan	nan	nan	nan	nan	nan	nan	nan	nan	
525	4.366666666666666	532.9691772460938	1455.947143554688	-467.5650939941405	379.620849609375	1572.475708007812	-457.1322937011718	429.3269348144531	1555.3798828125	-302.4951782226561	405.6614685058594	1553.54931640625	-602.8428955078124	559.8932495117188	1302.39306640625	-457.4309692382812	290.5000610351562	1352.098754882812	-452.2824401855468	488.0945739746094	1039.538452148438	-323.9146118164062	501.3259582519531	1044.716064453125	-604.8246459960936	302.3497619628906	1067.374755859375	-414.0612792968749	301.2471618652344	1066.869140625	-516.4737548828124	522.3037719726562	1301.05126953125	-100.6329345703124	553.4578247070312	1243.142944335938	-173.262725830078	484.0279541015625	1498.720092773438	-311.5978088378905	370.5268859863281	1502.883666992188	-283.6537475585936	787.9298706054688	1339.619750976562	-95.90042877197257	801.557373046875	1312.966186523438	-139.9816284179687	789.6837768554688	1313.512329101562	-58.35153961181633	529.7804565429688	1294.28466796875	-793.1092529296874	540.0697021484375	1236.832153320312	-720.2363281249999	467.7752685546875	1505.311767578125	-620.0850219726561	356.5263977050781	1494.87890625	-632.8104858398436	797.4620971679688	1320.452392578125	-775.5936279296874	791.4395751953125	1284.272583007812	-806.8009643554686	803.9596557617188	1299.7666015625	-732.4786376953124	443.5194396972656	873.8739013671875	-659.447998046875	469.5264587402344	643.0654296875	-640.9146728515625	543.4688110351562	747.691162109375	-587.751708984375	474.1781005859375	558.0650024414062	-643.5918579101562	467.4005432128906	564.9730224609375	-501.5446472167968	552.5411376953125	554.6181030273438	-578.1936645507812	465.5938720703125	405.8277282714844	-661.39697265625	429.5802917480469	204.96337890625	-643.1731567382812	488.2908325195312	294.4234313964844	-602.5192260742188	410.8284606933594	124.434440612793	-643.6248168945312	439.6990356445312	125.326530456543	-558.119384765625	424.5516662597656	846.6475830078125	-287.5632629394531	439.9984741210938	610.5015869140625	-311.1909790039062	528.7615356445312	764.5965576171875	-340.1523132324218	432.728759765625	545.584716796875	-310.0267028808593	526.3857421875	540.3619995117188	-350.7176513671874	419.9728393554688	448.927490234375	-304.3429565429688	413.7944946289062	194.5359039306641	-335.9417724609375	479.8727416992188	318.8467102050781	-367.9481506347656	405.0632934570312	120.0276184082031	-339.492431640625	437.0294799804688	137.5006561279297	-425.8417053222656	332.1027526855469	79.51810455322268	-394.6972351074219	646.4019775390625	62.73174667358401	-351.6127319335938	552.7637329101562	49.47087097167972	-414.6552734375	541.216064453125	43.46947097778322	-295.5450744628906	486.6195678710938	43.65213775634768	-309.8322143554688	514.568359375	110.8402175903321	-364.4302978515625	598.0391235351562	50.17910003662112	-403.9533386230469	588.9542236328125	48.38535308837893	-301.0198974609375	341.5420227050781	83.19878387451176	-590.9635620117188	648.8785400390625	74.04811859130864	-642.7733764648438	555.627197265625	50.77072525024418	-578.4744873046875	541.919921875	47.19503784179692	-694.8416748046875	487.8976440429688	46.5445823669434	-680.0717163085938	523.5615844726562	112.6907730102539	-625.5874633789062	597.3967895507812	51.55548858642582	-586.8075561523438	586.2304077148438	56.8362312316895	-690.03515625	476.709716796875	543.2918090820312	-446.2937927246093	313.9693603515625	1169.244140625	-460.8364562988281	0	0	0	301.7984619140625	1067.121948242188	-465.2675170898437	200	0	0	0	1.224646799147353e-14	-200	0	200	1.224646799147353e-14	nan	nan	nan	nan	nan	nan	nan	nan	nan	
526	4.375	532.9537963867188	1455.9794921875	-467.506866455078	379.5262756347656	1572.443115234375	-457.1264648437499	429.2704467773438	1555.392700195312	-302.5119018554686	405.6549072265625	1553.539916992188	-602.8598632812499	559.8883666992188	1302.376586914062	-457.4616088867187	290.4757995605469	1352.072631835938	-452.3134155273437	488.0777587890625	1039.53955078125	-323.9068908691406	501.2994384765625	1044.694213867188	-604.8218383789061	302.3485412597656	1067.374633789062	-414.0585937499999	301.201171875	1066.8798828125	-516.4860229492186	522.2886962890625	1301.138305664062	-100.6046981811523	553.4146728515625	1243.196411132812	-173.2349395751952	483.9859008789062	1498.74560546875	-311.5955200195311	370.4718627929688	1502.892456054688	-283.671905517578	787.8736572265625	1339.75634765625	-95.83467864990226	801.4725341796875	1312.914916992188	-139.740264892578	789.624755859375	1313.655639648438	-58.26193618774406	529.7400512695312	1294.212646484375	-793.0222778320311	540.0528564453125	1236.8076171875	-720.1953735351561	467.6732177734375	1505.289306640625	-620.0406494140624	356.3494262695312	1494.749755859375	-633.0344238281249	797.4280395507812	1320.450073242188	-775.5506591796874	791.408935546875	1284.264404296875	-806.7410278320311	803.9196166992188	1299.748657226562	-732.4877319335936	443.4822692871094	873.871337890625	-659.462890625	469.5163879394531	643.0699462890625	-640.9324340820312	543.4563598632812	747.6929321289062	-587.7556762695312	474.1326904296875	558.0802612304688	-643.5201416015625	467.3840942382812	564.9993896484375	-501.5505065917968	552.5257568359375	554.6436157226562	-578.2029418945312	465.6013488769531	405.8067016601563	-661.3964233398438	429.8895568847656	204.9292297363282	-643.400634765625	488.2897033691406	294.4548339843751	-602.5103759765625	410.8009338378906	124.4230270385743	-643.6414794921875	439.6378479003906	125.1980514526367	-558.0230712890625	424.5282592773438	846.6591186523438	-287.5548706054687	439.996337890625	610.4943237304688	-311.1862487792968	528.767822265625	764.608154296875	-340.2052612304687	432.7252197265625	545.5892333984375	-310.0465698242187	526.3906860351562	540.368408203125	-350.7052612304687	419.9693603515625	448.9302978515625	-304.364990234375	413.7953796386719	194.5318603515625	-335.9467468261719	479.8687438964844	318.8510131835938	-367.9673461914062	405.0792846679688	120.0185928344727	-339.5105590820312	436.9708251953125	137.4775085449219	-425.8327941894531	332.1051025390625	79.69898986816409	-394.4865417480469	646.4148559570312	62.7575263977051	-351.5753784179688	552.8851318359375	49.17147445678714	-413.9401245117188	541.26220703125	43.5348587036133	-295.5400085449219	486.6221618652344	43.63151550292971	-309.8380432128906	515.1346435546875	110.3826217651367	-365.3392944335938	598.0516967773438	50.20082855224612	-403.9651489257812	588.9570922851562	48.3925476074219	-301.0329895019531	341.5450439453125	83.19466400146489	-590.9669189453125	648.903076171875	74.04073333740239	-642.7753295898438	555.6443481445312	50.76578903198246	-578.43017578125	541.9171752929688	47.19217300415043	-694.8370971679688	487.9131164550781	46.54791641235356	-680.0732421875	523.5550537109375	112.6977844238282	-625.5859985351562	597.408203125	51.56411743164066	-586.8187255859375	586.0950317382812	56.79335403442387	-690.1666259765625	476.7139587402344	543.2979736328125	-446.2808532714843	313.9576416015625	1169.248046875	-460.8345336914062	0	0	0	301.7748413085938	1067.127197265625	-465.2723083496093	200	0	0	0	1.224646799147353e-14	-200	0	200	1.224646799147353e-14	nan	nan	nan	nan	nan	nan	nan	nan	nan	
